<?xml version="1.0" standalone="no"?>
<!DOCTYPE svg PUBLIC "-//W3C//DTD SVG 20010904//EN"
 "http://www.w3.org/TR/2001/REC-SVG-20010904/DTD/svg10.dtd">
<svg version="1.0" xmlns="http://www.w3.org/2000/svg"
 width="400.000000pt" height="400.000000pt" viewBox="0 0 400.000000 400.000000"
 preserveAspectRatio="xMidYMid meet">

<g transform="translate(0.000000,400.000000) scale(0.100000,-0.100000)"
fill="#000000" stroke="none">
<path d="M1967 3773 c-2 -4 -10 -26 -17 -48 -69 -218 -256 -603 -452 -930 -79
-132 -375 -589 -657 -1015 -283 -426 -540 -820 -571 -875 -55 -95 -140 -280
-140 -304 0 -19 2226 -15 3053 6 563 14 687 20 682 31 -2 7 -197 342 -432 745
-403 691 -438 748 -632 1018 l-205 286 -42 -71 c-23 -39 -103 -183 -179 -321
-348 -630 -524 -889 -751 -1105 -96 -91 -174 -156 -174 -145 0 4 131 233 292
509 464 797 486 837 620 1117 l128 266 -213 419 -212 419 -47 3 c-25 2 -48 -1
-51 -5z m199 -401 c245 -378 266 -466 162 -662 -22 -41 -86 -138 -142 -215
-322 -440 -680 -1068 -806 -1415 -61 -169 -90 -230 -136 -286 -56 -70 -180
-104 -377 -104 -84 0 -508 28 -514 34 -1 1 24 47 56 102 329 564 527 902 764
1304 563 955 799 1355 813 1378 10 15 24 22 47 22 30 -1 37 -9 133 -158z
m1023 -1747 l527 -900 -775 -3 c-426 -1 -777 1 -780 4 -3 3 -13 80 -21 171
l-15 165 -113 -150 c-62 -83 -117 -154 -121 -157 -9 -5 -449 -35 -518 -35
l-33 0 0 58 0 59 85 52 c151 92 258 188 404 361 245 290 449 620 676 1093 l90
188 33 -3 c33 -3 39 -14 561 -903z"/>
</g>
</svg>
